<svg width="64" height="64" viewBox="0 0 64 64" fill="none" xmlns="http://www.w3.org/2000/svg">
  <defs>
    <linearGradient id="syncframe-gradient" x1="0" y1="0" x2="64" y2="64" gradientUnits="userSpaceOnUse">
      <stop offset="0%" stop-color="#8b5cf6" />
      <stop offset="100%" stop-color="#3b82f6" />
    </linearGradient>
    <filter id="shadow" x="-10%" y="-10%" width="120%" height="120%">
      <feDropShadow dx="0" dy="2" stdDeviation="3" flood-color="#000000" flood-opacity="0.3"/>
    </filter>
  </defs>
  
  <rect x="6" y="14" width="52" height="36" rx="8" fill="url(#syncframe-gradient)" filter="url(#shadow)" />
  <rect x="6" y="14" width="52" height="36" rx="8" fill="none" stroke="#ffffff" stroke-width="2" stroke-opacity="0.2" />
  
  <path d="M22 32L30 22V30H42L34 42V34H22Z" fill="#ffffff" />
  
  <!-- timeline notches -->
  <line x1="14" y1="14" x2="14" y2="18" stroke="#ffffff" stroke-width="2" stroke-opacity="0.5" stroke-linecap="round"/>
  <line x1="26" y1="14" x2="26" y2="18" stroke="#ffffff" stroke-width="2" stroke-opacity="0.5" stroke-linecap="round"/>
  <line x1="38" y1="14" x2="38" y2="18" stroke="#ffffff" stroke-width="2" stroke-opacity="0.5" stroke-linecap="round"/>
  <line x1="50" y1="14" x2="50" y2="18" stroke="#ffffff" stroke-width="2" stroke-opacity="0.5" stroke-linecap="round"/>
  
  <line x1="14" y1="50" x2="14" y2="46" stroke="#ffffff" stroke-width="2" stroke-opacity="0.5" stroke-linecap="round"/>
  <line x1="26" y1="50" x2="26" y2="46" stroke="#ffffff" stroke-width="2" stroke-opacity="0.5" stroke-linecap="round"/>
  <line x1="38" y1="50" x2="38" y2="46" stroke="#ffffff" stroke-width="2" stroke-opacity="0.5" stroke-linecap="round"/>
  <line x1="50" y1="50" x2="50" y2="46" stroke="#ffffff" stroke-width="2" stroke-opacity="0.5" stroke-linecap="round"/>
</svg>
